Coordinates
version=1
nRows=8
nColumns=40
inDegrees=yes

Units are S.I. units (second, meters, Newtons, ...)
Angles are in degrees.

endheader
time	pelvis_tilt	pelvis_list	pelvis_rotation	pelvis_tx	pelvis_ty	pelvis_tz	hip_flexion_r	hip_adduction_r	hip_rotation_r	knee_angle_r	knee_angle_r_beta	ankle_angle_r	subtalar_angle_r	mtp_angle_r	hip_flexion_l	hip_adduction_l	hip_rotation_l	knee_angle_l	knee_angle_l_beta	ankle_angle_l	subtalar_angle_l	mtp_angle_l	lumbar_extension	lumbar_bending	lumbar_rotation	arm_flex_r	arm_add_r	arm_rot_r	elbow_flex_r	pro_sup_r	wrist_flex_r	wrist_dev_r	arm_flex_l	arm_add_l	arm_rot_l	elbow_flex_l	pro_sup_l	wrist_flex_l	wrist_dev_l
     18.12000000	     -4.86544408	     -3.77476422	     -2.10393258	      0.76971609	      0.93207291	      0.42004158	     30.31179956	     -4.72294337	     -6.46741458	     55.29130912	     55.29130912	      3.73090093	    -16.65853048	      5.02763840	     11.86588418	     -3.13617143	     -7.53063874	     19.12562710	     19.12562710	     14.00253117	    -10.53735295	     -0.05656881	    -10.02584531	      5.48890008	      2.98269121	      6.32381292	    -13.15398275	     -0.63331675	     25.17641411	     46.42512526	      0.00000000	      0.00000000	     15.43236405	    -14.90428145	     -7.60294529	     59.19671442	     46.55959172	      0.00000000	      0.00000000
     18.13285714	     -4.87921505	     -3.81403402	     -2.34359164	      0.76916117	      0.93219901	      0.42054235	     30.63163836	     -4.46665178	     -6.50238996	     52.52429606	     52.52429606	      2.61893432	    -16.35414958	      1.27430824	     11.10289235	     -3.22774915	     -8.03021561	     18.50112604	     18.50112604	     13.92429052	    -10.08599379	     -1.04983752	    -10.16128969	      5.59128330	      2.50233053	      4.85128906	    -13.17603831	     -1.07590718	     24.05641100	     46.51515460	      0.00000000	      0.00000000	     15.23175196	    -15.29420122	     -9.17097610	     61.91733126	     46.76528922	      0.00000000	      0.00000000
     18.14571429	     -4.95340445	     -3.87038461	     -2.49552794	      0.76852908	      0.93222370	      0.42110556	     30.98465617	     -4.21340559	     -6.64759808	     49.69647229	     49.69647229	      2.78197232	    -15.41949822	      1.27563233	     10.48359385	     -3.29767463	     -8.23065713	     18.00567633	     18.00567633	     14.12067134	     -9.81717840	     -1.13497589	    -10.17667883	      5.71470320	      2.41322425	      2.96231512	    -13.28913451	     -1.11951183	     23.35481244	     46.53347876	      0.00000000	      0.00000000	     15.92080992	    -15.64059476	     -9.51267939	     62.73622232	     46.81309631	      0.00000000	      0.00000000
     18.15857143	     -5.00155825	     -3.89493601	     -2.65814797	      0.76801613	      0.93217158	      0.42176403	     31.18296621	     -3.99380296	     -6.83234168	     46.61243159	     46.61243159	      2.80915933	    -14.33783815	      0.87096585	      9.78534154	     -3.35459800	     -8.57503749	     17.44288479	     17.44288479	     14.29929297	     -9.32323784	     -1.45769103	    -10.22875598	      5.76792365	      2.42934134	      0.96842233	    -13.44460209	     -1.33937187	     22.97133099	     46.55406619	      0.00000000	      0.00000000	     16.47616035	    -15.80900711	    -10.00913409	     64.13127483	     46.88509954	      0.00000000	      0.00000000
     18.17142857	     -5.17599217	     -3.97745488	     -2.77429217	      0.76744218	      0.93186734	      0.42258977	     31.36203939	     -3.71338691	     -7.18783521	     43.27573044	     43.27573044	      2.93130875	    -13.21730224	      0.88272163	      9.30940249	     -3.47815824	     -8.74771925	     17.01487588	     17.01487588	     14.48221728	     -9.04000239	     -1.65935808	    -10.09670111	      5.91951769	      2.13201275	     -0.76902710	    -13.56808682	     -1.49213182	     22.61710083	     46.56720846	      0.00000000	      0.00000000	     16.87776505	    -16.19893663	    -10.37178318	     64.96171118	     46.93100481	      0.00000000	      0.00000000
     18.18428571	     -5.21596731	     -3.98712136	     -2.92687955	      0.76705159	      0.93161454	      0.42351209	     31.28109346	     -3.50967369	     -7.59530741	     39.78507695	     39.78507695	      2.99400449	    -11.80053278	      0.56384514	      8.60381792	     -3.52850340	     -9.11120620	     16.46777338	     16.46777338	     14.65930912	     -8.55707791	     -2.08818893	    -10.15874794	      5.96226879	      2.08429810	     -2.68313357	    -13.61226803	     -1.82314723	     22.53861991	     46.58273815	      0.00000000	      0.00000000	     17.29949467	    -16.45166561	    -10.93931035	     66.41515724	     47.00715715	      0.00000000	      0.00000000
     18.19714286	     -5.33112216	     -3.93980630	     -3.04477378	      0.76679062	      0.93114841	      0.42459096	     31.12477879	     -3.37667443	     -8.21279073	     36.12608943	     36.12608943	      2.80320841	    -10.31536810	     -0.29173039	      7.96298902	     -3.55198062	     -9.58362884	     15.88368355	     15.88368355	     14.65026723	     -7.90517472	     -2.94516712	    -10.11347948	      5.91301666	      1.92595574	     -4.73934205	    -13.65600598	     -2.68123522	     23.27177244	     46.60901375	      0.00000000	      0.00000000	     17.30561576	    -16.62710430	    -11.81845342	     68.40269615	     47.12208933	      0.00000000	      0.00000000
     18.21000000	     -5.50955699	     -3.98564217	     -3.13290236	      0.76658359	      0.93053834	      0.42583094	     30.91393930	     -3.02829177	     -8.72824113	     32.41497871	     32.41497871	      2.81847250	     -8.98526550	      0.06087011	      7.47560649	     -3.64650389	     -9.70010036	     15.47255697	     15.47255697	     14.82846960	     -7.71830583	     -3.16947264	     -9.91139650	      6.02043833	      1.66513077	     -6.28454944	    -13.65025422	     -2.89059898	     22.99261917	     46.62435263	      0.00000000	      0.00000000	     17.59919103	    -16.98581220	    -12.13364165	     69.04187649	     47.16219945	      0.00000000	      0.00000000
